<svg width="24" height="26" viewBox="0 0 24 26" fill="none" xmlns="http://www.w3.org/2000/svg">
<path d="M16 19.6667H22.6666L20.7933 17.7933C20.5417 17.5417 20.3422 17.243 20.2061 16.9142C20.07 16.5855 19.9999 16.2331 20 15.8773V11.6667C20.0002 10.0119 19.4874 8.39779 18.5323 7.04652C17.5772 5.69525 16.2266 4.67329 14.6666 4.12133V3.66667C14.6666 2.95942 14.3857 2.28115 13.8856 1.78105C13.3855 1.28095 12.7072 1 12 1C11.2927 1 10.6145 1.28095 10.1144 1.78105C9.61427 2.28115 9.33331 2.95942 9.33331 3.66667V4.12133C6.22665 5.22 3.99998 8.184 3.99998 11.6667V15.8787C3.99998 16.596 3.71465 17.2853 3.20665 17.7933L1.33331 19.6667H7.99998M16 19.6667V21C16 22.0609 15.5786 23.0783 14.8284 23.8284C14.0783 24.5786 13.0608 25 12 25C10.9391 25 9.9217 24.5786 9.17155 23.8284C8.42141 23.0783 7.99998 22.0609 7.99998 21V19.6667M16 19.6667H7.99998" stroke="black" stroke-width="2" stroke-linecap="round" stroke-linejoin="round"/>
</svg>
